<?xml version="1.0" encoding="iso-8859-1"?>
<!-- Generator: Adobe Illustrator 19.0.0, SVG Export Plug-In . SVG Version: 6.00 Build 0)  -->
<svg version="1.1" id="Layer_1" xmlns="http://www.w3.org/2000/svg" xmlns:xlink="http://www.w3.org/1999/xlink" x="0px" y="0px"
	 viewBox="0 0 512 512" style="enable-background:new 0 0 512 512;" xml:space="preserve">
<g>
	<g>
		<path d="M244.009,93.777c-5.878-3.444-13.429-1.471-16.871,4.404c-3.442,5.874-1.471,13.428,4.404,16.871l19.244,11.277
			l18.856-11.598c1.739-1.07,3.525-1.995,5.34-2.806L244.009,93.777z"/>
	</g>
</g>
<g>
	<g>
		<circle cx="168.201" cy="60.608" r="49.32"/>
	</g>
</g>
<g>
	<g>
		<path d="M501.339,240.749h-64.823c6.719-2.473,13.947-14.635,15.947-23.83c2.357-10.832-1.8-20.934-9.287-22.564
			c-3.213-0.699-6.514,0.278-9.422,2.478c-0.668,0.505-1.382,0.919-2.121,1.255c1.673-11.05,6.404-20.317,6.467-20.441
			c1.097-2.114,0.275-4.717-1.838-5.816c-2.12-1.101-4.721-0.278-5.82,1.837c-0.067,0.128-0.387,0.754-0.859,1.775
			c-0.541-1.657-1.306-3.241-2.296-4.633c-3.292-4.63-15.239-9.287-20.571-11.188c-1.277-0.455-2.623,0.499-2.612,1.857
			c0.045,5.66,0.521,18.475,3.814,23.105c3.697,5.2,10.882,8.441,16.218,6.773c-0.511,2.208-0.943,4.542-1.247,6.951
			c-0.923-0.365-1.81-0.851-2.63-1.472c-2.909-2.202-6.212-3.181-9.427-2.482c-7.487,1.63-11.645,11.731-9.287,22.564
			c2.001,9.195,9.228,21.357,15.947,23.83H347.5c3.13-1.482,5.299-4.66,5.299-8.353c0-3.293-1.727-6.178-4.32-7.816
			c9.183-6.579,15.6-16.771,17.152-28.505c0.387-2.935-1.897-5.544-4.865-5.544h-40.475h-32.795c-2.977,0-5.25,2.635-4.864,5.544
			c0.701,5.303,2.403,10.288,4.898,14.773c3.025,5.436,7.223,10.127,12.255,13.732c-2.593,1.639-4.319,4.522-4.319,7.816
			c0,3.693,2.17,6.87,5.299,8.353c-10.272,0-64.896,0-70.755,0c-5.947,0-10.661,4.863-10.661,10.661v8.927
			c0,16.605,13.29,30.098,29.812,30.444v156.179l-45.212-126.874c-2.804-7.87-9.116-13.982-17.072-16.532l-28.165-9.028
			l19.861-69.322L129.926,184.5l78.21,36.14c6.667,3.081,14.588,2.741,21.078-1.251l76.037-46.766
			c10.512-6.464,13.792-20.226,7.327-30.737c-6.465-10.51-20.224-13.792-30.737-7.326l-65.833,40.491l-67.337-31.115l37.874,6.462
			c-4.214-5.745-10.288-10.193-17.667-12.307l-54.495-15.612c-18.657-5.345-37.951,6.349-41.822,25.388L39.702,309.483
			c-2.062,10.14,1.52,20.886,9.929,27.729H36.159l-0.41-207.269c-0.019-9.86-8.019-17.839-17.873-17.839
			c-0.012,0-0.024,0-0.036,0.001C7.968,112.124-0.019,120.142,0,130.014c0.495,250.917,0,114.163,0,352.824
			c0,9.872,8.003,17.874,17.874,17.874s17.874-8.003,17.874-17.874v-47.191h90.57v47.191c0,9.872,8.003,17.874,17.874,17.874
			c9.872,0,17.874-8.003,17.874-17.874c0-19.536,0-106.612,0-120.522l42.97,120.578c4.972,13.951,20.309,21.226,34.257,16.256
			c4.786-1.706,8.785-4.631,11.776-8.302c2.939,5.845,8.975,9.865,15.964,9.865c9.872,0,17.874-8.003,17.874-17.874V290.797h161.529
			v192.041c0,9.872,8.003,17.874,17.874,17.874s17.874-8.003,17.874-17.874V290.78C498.71,290.434,512,276.942,512,260.336v-8.927
			C512,245.521,507.227,240.749,501.339,240.749z M126.32,399.897H35.75v-26.937h90.57V399.897z"/>
	</g>
</g>
<g>
	<g>
		<path d="M334.41,108.872c-3.297-18.649-7.231-24.212-3.461-33.185c-11.828,3.147-10.757,23.307-8.681,35.324
			c3.313,18.806,7.345,24.966,3.462,33.185C337.342,141.459,336.52,121.028,334.41,108.872z"/>
	</g>
</g>
<g>
</g>
<g>
</g>
<g>
</g>
<g>
</g>
<g>
</g>
<g>
</g>
<g>
</g>
<g>
</g>
<g>
</g>
<g>
</g>
<g>
</g>
<g>
</g>
<g>
</g>
<g>
</g>
<g>
</g>
</svg>
