<?xml version="1.0" encoding="iso-8859-1"?>
<!-- Generator: Adobe Illustrator 18.0.0, SVG Export Plug-In . SVG Version: 6.00 Build 0)  -->
<!DOCTYPE svg PUBLIC "-//W3C//DTD SVG 1.1//EN" "http://www.w3.org/Graphics/SVG/1.1/DTD/svg11.dtd">
<svg version="1.1" id="Capa_1" xmlns="http://www.w3.org/2000/svg" xmlns:xlink="http://www.w3.org/1999/xlink" x="0px" y="0px"
	 viewBox="0 0 458.61 458.61" style="enable-background:new 0 0 458.61 458.61;" xml:space="preserve">
<g id="XMLID_291_">
	<path id="XMLID_293_" d="M334.68,220.407c8.172-1.358,13.696-9.083,12.339-17.256l-11.361-68.376
		c-0.858-5.161-4.342-9.502-9.195-11.456l-44.893-18.035c-7.392-2.969-15.283-4.495-23.249-4.495h-73.688L141.386,75.77V15
		c0-8.284-6.716-15-15-15c-8.284,0-15,6.716-15,15v69.422c0,5.354,2.854,10.303,7.489,12.984l64.48,37.302v124.5h0.218
		l-0.417,140.343c-0.01,3.262,0.779,6.335,2.156,9.06h-19.667c-5.04,0-9.127,4.086-9.127,9.127v31.747
		c0,5.041,4.086,9.127,9.127,9.127h14.722c5.04,0,9.127-4.086,9.127-9.127V433.61h101.325v15.873c0,5.041,4.086,9.127,9.127,9.127
		h14.722c5.04,0,9.127-4.086,9.127-9.127v-31.747c0-5.04-4.086-9.127-9.127-9.127h-93.669c1.36-2.691,2.148-5.72,2.158-8.94
		l0.418-140.462h24.85l19.372,10.272l-15.712,60.691c-2.768,10.693,3.656,21.606,14.349,24.375c1.682,0.435,3.367,0.643,5.026,0.643
		c8.896-0.001,17.015-5.98,19.348-14.992l19.669-75.977c2.32-8.962-1.814-18.345-9.992-22.682l-28.416-15.068v-92.711l35.378,14.244
		l9.98,60.066c1.22,7.34,7.576,12.544,14.779,12.544C333.02,220.612,333.848,220.545,334.68,220.407z"/>
	<circle id="XMLID_292_" cx="227.711" cy="52.93" r="34.711"/>
</g>
<g>
</g>
<g>
</g>
<g>
</g>
<g>
</g>
<g>
</g>
<g>
</g>
<g>
</g>
<g>
</g>
<g>
</g>
<g>
</g>
<g>
</g>
<g>
</g>
<g>
</g>
<g>
</g>
<g>
</g>
</svg>
